# xmcd
#
# Track frame offsets: 
#        150
#        14024
#        25898
#        35431
#        48550
#        58240
#        73730
#        92819
#        103648
#        110365
#        122573
#        129962
#
# Disc length: 1842 seconds
#
# Revision: 0
# Processed by: cddbd v1.5.2PL0 Copyright (c) Steve Scherf et al.
# Submitted via: ExactAudioCopy v0.95b4
#
DISCID=a507300c
DTITLE=Blueshades Of Bluegrass - Up and Runnin
DYEAR=2003
DGENRE=Bluegrass
TTITLE0=I'll Go Stepping Too
TTITLE1=Little Mountain Church
TTITLE2=5lb. Possum
TTITLE3=Old Home Place
TTITLE4=How Mountain Girls Can Love
TTITLE5=Rose Of My Heart
TTITLE6=Black Diamond Strings
TTITLE7=Head Over Heals
TTITLE8=Evalina (Instrumental)
TTITLE9=I Wonder Where You Are Tonight
TTITLE10=Fire Ball (Instrumental)
TTITLE11=Crying Holy
EXTD=
EXTT0=
EXTT1=
EXTT2=
EXTT3=
EXTT4=
EXTT5=
EXTT6=
EXTT7=
EXTT8=
EXTT9=
EXTT10=
EXTT11=
PLAYORDER=
